<?xml version="1.0" standalone="no"?>
<!DOCTYPE svg PUBLIC "-//W3C//DTD SVG 20010904//EN"
 "http://www.w3.org/TR/2001/REC-SVG-20010904/DTD/svg10.dtd">
<svg version="1.0" xmlns="http://www.w3.org/2000/svg"
 width="512.000000pt" height="512.000000pt" viewBox="0 0 512.000000 512.000000"
 preserveAspectRatio="xMidYMid meet">

<g transform="translate(0.000000,512.000000) scale(0.100000,-0.100000)"
fill="#000000" stroke="none">
<path d="M820 4873 c0 -236 2 -251 24 -304 34 -85 54 -108 227 -260 l159 -140
-1 -937 0 -937 -540 -320 c-579 -343 -597 -356 -647 -463 l-27 -57 -3 -728 -2
-727 2550 0 2550 0 0 2560 0 2560 -2145 0 -2145 0 0 -247z m2510 -13 l0 -110
-1180 0 -1180 0 0 110 0 110 1180 0 1180 0 0 -110z m1402 -2293 c2 -1321 3
-2403 3 -2403 0 -1 -91 -5 -202 -9 l-203 -7 0 2411 0 2411 200 0 200 0 2
-2403z m-1365 1975 c25 -53 71 -105 178 -200 l70 -62 -1139 0 -1138 0 -101 88
c-56 48 -133 117 -172 154 l-70 67 1175 1 1175 0 22 -48z m373 -1317 l0 -895
-440 0 -440 0 0 40 c0 22 4 40 10 40 5 0 25 14 45 32 97 84 109 223 28 317
-113 132 -310 108 -380 -46 -50 -109 -12 -236 87 -291 44 -24 50 -31 50 -59
l0 -33 -655 0 -655 0 0 895 0 895 1175 0 1175 0 0 -895z m-1030 -1190 l0 -145
75 0 75 0 0 145 0 145 343 0 342 0 -90 -54 c-49 -29 -247 -147 -439 -261 -370
-220 -413 -252 -455 -343 l-24 -52 -1176 0 -1176 0 35 35 c20 19 276 179 570
354 l535 319 693 1 692 1 0 -145z m-190 -1300 l0 -585 -1180 0 -1180 0 0 585
0 585 1180 0 1180 0 0 -585z"/>
<path d="M2180 3350 l0 -80 75 0 75 0 0 80 0 80 -75 0 -75 0 0 -80z"/>
<path d="M2480 3350 l0 -80 80 0 80 0 0 80 0 80 -80 0 -80 0 0 -80z"/>
<path d="M2790 3350 l0 -80 75 0 75 0 0 80 0 80 -75 0 -75 0 0 -80z"/>
<path d="M1330 1970 l0 -80 150 0 150 0 0 80 0 80 -150 0 -150 0 0 -80z"/>
<path d="M1842 1973 l3 -78 153 -3 152 -3 0 81 0 80 -155 0 -156 0 3 -77z"/>
<path d="M927 1804 c-4 -4 -7 -40 -7 -81 l0 -73 155 0 156 0 -3 78 -3 77 -146
3 c-80 1 -148 -1 -152 -4z"/>
<path d="M1544 1796 c-3 -7 -4 -42 -2 -77 l3 -64 153 -3 152 -3 0 81 0 80
-150 0 c-118 0 -152 -3 -156 -14z"/>
<path d="M2170 1730 l0 -81 153 3 152 3 0 75 0 75 -152 3 -153 3 0 -81z"/>
<path d="M310 710 l0 -420 228 2 227 3 0 415 0 415 -227 3 -228 2 0 -420z"/>
<path d="M1360 941 c-76 -25 -118 -61 -149 -131 -27 -60 -26 -123 3 -185 28
-61 56 -87 120 -116 99 -44 220 -3 281 95 25 42 30 59 30 116 0 57 -5 74 -30
116 -40 64 -104 104 -176 109 -30 3 -65 1 -79 -4z"/>
<path d="M2030 941 c-76 -25 -118 -61 -149 -131 -53 -116 1 -248 121 -300 130
-56 273 19 309 162 22 91 -23 195 -105 243 -48 28 -132 41 -176 26z"/>
</g>
</svg>
